<svg xmlns="http://www.w3.org/2000/svg" viewBox="0 0 200 200"><path d="M89.5 13l4 5-4-5zM62.5 24l.5 6.5h-1l.5-6.5zM96.5 26l.5 2.5h-1l.5-2.5zM124.5 37l-1 2 1-2zM67.5 41l2 3-2-3zM127.5 41l-1 2 1-2zM165.5 42l.5 40.5h-1l.5-40.5zM161.5 53l-1 2 1-2zM110.5 56l2 3-2-3zM135.5 63l.5 2.5-2 1 1.5-3.5zM147.5 63l.5 2.5-2 1 1.5-3.5zM159.5 63l.5 2.5-2 1 1.5-3.5zM76.5 65l.5 2.5h-1l.5-2.5zM58.5 66l-1 2 1-2zM60.5 66l.5 48.5h-1l.5-48.5zM102.5 67l1 2-1-2zM135.5 70l.5 3.5-1 2 1 4h-1l-1-5 1.5-4.5zM147.5 70l.5 3.5-1 2 1 4h-1l-1-5 1.5-4.5zM159.5 70l.5 3.5-1 2 1 4h-1l-1-5 1.5-4.5zM83.5 74l.5 2.5h-1l.5-2.5zM129.5 74l-1 2 1-2zM141.5 74l-1 2 1-2zM153.5 74l-1 2 1-2zM112.5 82l1 2-1-2zM135.5 82l.5 2.5h-1l.5-2.5zM147.5 82l.5 2.5h-1l.5-2.5zM159.5 82l.5 2.5h-1l.5-2.5zM123.5 86l2 3-2-3zM34.5 109l.5 3.5h-1l.5-3.5zM98.5 113l.5 3.5h-1l.5-3.5zM78.5 121l2.5.5-2.5.5v-1zM75.5 123l.5 2.5h-1l.5-2.5zM59.5 124l.5 2.5h-1l.5-2.5zM83.5 125l.5 3.5h-1l.5-3.5zM99.5 126l.5 3.5h-1l.5-3.5zM74.5 135l.5 3.5h-1l.5-3.5zM58.5 136l.5 3.5h-1l.5-3.5zM84.5 138l.5 2.5h-1l.5-2.5zM100.5 138l.5 3.5h-1l.5-3.5zM73.5 148l.5 2.5h-1l.5-2.5zM57.5 149l.5 2.5h-1l.5-2.5zM85.5 150l.5 3.5h-1l.5-3.5zM101.5 151l.5 2.5h-1l.5-2.5zM72.5 160l.5 3.5h-1l.5-3.5zM56.5 161l.5 2.5h-1l.5-2.5zM86.5 163l.5 2.5h-1l.5-2.5zM102.5 163l.5 3.5h-1l.5-3.5zM55.5 173l.5 3.5h-1l.5-3.5zM71.5 173l.5 2.5h-1l.5-2.5zM87.5 175l.5 3.5h-1l.5-3.5zM103.5 176l.5 2.5h-1l.5-2.5zM56.5 186l2 3-2-3zM89.5 186l2 3-2-3z" opacity=".863"/><path d="M78.5 10l2.5.5-2.5.5v-1zM68.5 14l-2 3 2-3zM129.5 35l28.5.5-28.5.5v-1zM162.5 37l1 2-1-2zM125.5 44l.5 8.5h-1l.5-8.5zM129.5 55l29.5.5-29.5.5v-1zM48.5 56l-1 2 1-2zM129.5 69l5.5.5-5.5.5v-1zM141.5 69l5.5.5-5.5.5v-1zM153.5 69l5.5.5-5.5.5v-1zM129.5 80l4.5.5-4.5.5v-1zM141.5 80l4.5.5-4.5.5v-1zM153.5 80l4.5.5-4.5.5v-1zM121.5 82l-1 2 1-2zM80.5 97l-1 2 1-2zM35.5 114l2 3-2-3zM45.5 115l-1 2 1-2z" opacity=".996"/><path d="M67.5 14l-1 2 1-2zM96.5 23l.5 2.5h-1l.5-2.5zM96.5 29l.5 2.5h-1l.5-2.5zM162.5 36l1 2-1-2zM92.5 40l-5 6 5-6zM128.5 41l30.5.5-30.5.5v-1zM121.5 42l.5 22.5-3 2 2-2 .5-22.5zM70.5 44l1 2-1-2zM161.5 44l.5 8.5h-1l.5-8.5zM73.5 49q3.8-.7 4.5 1.5l-1.5-.5q-4 .8-3-1zM82.5 49l2.5.5-3.5 1.5 1-2zM78.5 52l.5 2.5h-1l.5-2.5zM80.5 52l.5 4.5h-1l.5-4.5zM126.5 53l1 2-1-2zM47.5 56l-1 2 1-2zM77.5 60l.5 2.5h-1l.5-2.5zM81.5 61l.5 2.5h-1l.5-2.5zM152.5 62l.5 4 5 .5-4.5.5q-2.7-1.2-1-5zM128.5 65l5.5 1.5-4.5.5-1-2zM140.5 65l5.5 1.5-4.5.5-1-2zM99.5 66l-.5 1.5-.5 45.5-.5-45.5 1.5-1.5zM76.5 68l.5 2.5h-1l.5-2.5zM82.5 69l.5 2.5h-1l.5-2.5zM130.5 74q4.8-1.3 3.5 2l-5.5 1 2-3zM142.5 74q4.8-1.3 3.5 2l-5.5 1 2-3zM154.5 74q4.8-1.3 3.5 2l-5.5 1 2-3zM75.5 75l.5 3.5h-1l.5-3.5zM83.5 77l.5 2.5h-1l.5-2.5zM110.5 80l1 2-1-2zM129.5 81l5.5.5-5.5.5v-1zM141.5 81l5.5.5-5.5.5v-1zM153.5 81l5.5.5-5.5.5v-1zM74.5 83l.5 2.5h-1l.5-2.5zM84.5 84l.5 3.5h-1l.5-3.5zM129.5 85l5.5.5-5.5.5v-1zM141.5 85l5.5.5-5.5.5v-1zM153.5 85l5.5.5-5.5.5v-1zM164.5 86l-2 3 2-3zM35.5 115l1 2-1-2zM46.5 115l-1 2 1-2zM59.5 118l.5 5.5h-1l.5-5.5zM99.5 121l.5 4.5h-1l.5-4.5zM75.5 126l.5 5.5h-1l.5-5.5zM83.5 129l.5 4.5h-1l.5-4.5zM58.5 131l.5 4.5h-1l.5-4.5zM100.5 133l.5 4.5h-1l.5-4.5zM74.5 139l.5 4.5h-1l.5-4.5zM84.5 141l.5 5.5h-1l.5-5.5zM57.5 143l.5 5.5h-1l.5-5.5zM101.5 146l.5 4.5h-1l.5-4.5zM73.5 151l.5 5.5h-1l.5-5.5zM85.5 154l.5 4.5h-1l.5-4.5zM56.5 156l.5 4.5h-1l.5-4.5zM102.5 158l.5 4.5h-1l.5-4.5zM72.5 164l.5 4.5h-1l.5-4.5zM86.5 166l.5 5.5h-1l.5-5.5zM55.5 168l.5 4.5h-1l.5-4.5zM103.5 171l.5 4.5h-1l.5-4.5zM71.5 176l.5 4.5h-1l.5-4.5zM87.5 179l.5 3.5h-1l.5-3.5zM54.5 180l.5 2.5h-1l.5-2.5zM70.5 185l-1 2 1-2z" opacity=".435"/><path d="M74.5 11h10l9.5 7.5q3.1 4.4 2 13-2.2 7.8-7.5 12.5l-9 4Q71 46.5 67 40.5q-5.7-5.3-4-18l7.5-9.5 4-2z"/><path d="M126.5 36h34l4.5 4.5v44l-2.5 3.5-5 2h-28l-6.5-4.5-1.5-3.5q-1.3 3.2-7 2l-12-17-4.5-1v51.5l1 1v12l1 1 1 24 1 1v11l1 1v12l1 2-3.5 5.5-8 1-4.5-5.5-3-46-1-1v-12l-1-3.5h-6.5l-1.5 1.5-4 60-3.5 5.5-8 1q-5.6-1.9-4.5-10.5l1-1 3-49 1-1v-11l1-1V66l-4 1.5-9 43-4.5 6.5q-7.2 1.3-8.5-3.5v-6l10-45 4.5-6.5q11.9-5.4 27.5-6l1 6.5-1 1v7l-2 8-1 15-1 1L79.5 99l5.5-8.5v-9l-2-8-2-21 1-2.5 22.5 4q5.8 1.3 8.5 5.5l5.5 8.5 3.5-3.5v-23l4.5-5.5zm1.5 5l-3 4q-1 7 1 10l4 1h29l2-1 1-1V44l-2-3h-32zm0 21v5h7l1-1v-4h-8zm12 0v5h7l1-1v-4h-8zm12 0v5h7l1-1v-4h-8zm-22 7l-2 2v9l1 1-1 5h8v-5h-2l2-1-1-4 1-5q-1-3-6-2zm12 0l-2 2v9l1 1-1 5h8v-5h-2l2-1-1-4 1-5q-1-3-6-2zm12 0l-2 2v9l1 1-1 5h8v-5h-2l2-1-1-4 1-5q-1-3-6-2z"/></svg>