<svg xmlns="http://www.w3.org/2000/svg" viewBox="0 0 200 200"><path d="M96.5 54l.5 8.5h-1l.5-8.5zM92.5 56l.5 2.5h-1l.5-2.5zM89.5 57l-1 2 1-2zM106.5 58l1.5 7-2-.5 1-2-.5-4.5zM91.5 60l.5 2.5h-1l.5-2.5zM85.5 61l-1 2 1-2zM115.5 62l1 2-1-2zM31 63l3 1.5-.5 5.5-1-6-2 6-.5-2.5 1-4.5zM157.5 63q2.6-.8 1.5 2.5h-1l-.5-1.5-2 4-.5-1.5 2.5-3.5zM102.5 65l1.5 8.5-2 .5.5-9zM28.5 66l-3 4 3-4zM46.5 66l3 4-3-4zM95.5 66l1.5 7.5-2-1 .5-6.5zM171.5 66l1 2-1-2zM39.5 67L41 79l-2-.5 1-3-1-1 .5-7.5z" opacity=".922"/><path d="M42.5 67l1.5 5q-4.1 1.2-1.5-5zM152.5 67l-2 3 2-3zM167.5 69l1.5 2.5-2 .5.5-3zM174.5 69l1 2-1-2zM164.5 71l1.5 7.5-2 .5.5-8zM126.5 77l-1 2 1-2zM84.5 82l.5 3.5h-1l.5-3.5zM21.5 84l.5 2.5h-1l.5-2.5zM53.5 84l.5 2.5h-1l.5-2.5zM51.5 85l-1 2 1-2zM176.5 85l-1 2 1-2zM23.5 91l-1 2 1-2zM51.5 91l1 2-1-2zM149.5 94l-1 2 1-2zM175.5 95l1 2-1-2zM25.5 97l-1 2 1-2zM49.5 97l1 2-1-2zM174.5 97l1 2-1-2zM113.5 99l-1 2 1-2zM173.5 99l1 2-1-2zM27.5 100l-1 2 1-2zM47.5 100l1 2-1-2zM152.5 100l-1 2 1-2zM86.5 102l1 2-1-2zM90.5 106l1 2-1-2zM13.5 110l-4 5 4-5zM61.5 110l4 5-4-5zM138.5 110l-3 4 3-4zM186.5 110l1 2-1-2zM34.5 111q-1.6 1.8 1.5 3.5l-.5 3.5q.3-4.2-2.5-5.5l1.5-1.5zM39.5 111l1 2-1-2zM129.5 112l1 2-1-2zM69.5 113l-2 3 2-3zM159.5 113l1 2-1-2zM189.5 113l1 2-1-2zM160.5 116l.5 2.5h-1l.5-2.5zM111.5 117l-1 2 1-2zM169.5 117l-1 2 1-2zM97.5 118l.5 2.5h-1l.5-2.5zM156.5 119l1 2-1-2zM166.5 121l-1 2 1-2zM33.5 122l1 2-1-2zM5.5 124l.5 5.5H5l.5-5.5zM49.5 124l10.5.5-10.5.5v-1zM106.5 124l-1 2 1-2zM174.5 124h10l1.5 1.5-.5 6.5-.5-7h-10.5v-1zM55.5 128l2.5.5-2.5.5v-1zM55.5 130l2.5.5-2.5.5v-1zM115.5 130l11.5.5-11.5.5v-1zM128.5 132l.5 8.5-1.5 1.5h-13l-1-2 1 1H128l.5-9zM49.5 133l9.5.5-9.5.5v-1zM175.5 133l8.5.5-8.5.5v-1zM7.5 134l1 2-1-2zM192.5 134l-1 2 1-2z" opacity=".922"/><path d="M116.5 136v2l2.5-.5-.5-1.5q3 1.5 0 3l-3.5-1.5 1.5-1.5zM18.5 138l38.5.5-38.5.5v-1zM143.5 138l38.5.5-38.5.5v-1z" opacity=".922"/><path d="M96 52h7v12.5l-1 1V74l2-.5v-19l3-.5-1 11 2-.5v-8l2.5 1.5 4.5 3.5 4 6 1 6 1.5 1.5 4.5 1-1.5 3-4.5 1q.2 18.4-10.5 27-3.8 4.2-13 3l-8.5-5.5-6-10L80 80l-6-2.5q-.7-2.2 1.5-1.5l4.5-1v-4.5L87.5 59l3-2 2 8 .5-8.5-1-2.5 3 .5v18l2 1v-19L96 52zM84 80v5h-2q0 10 5 16 3 5 11 7 7 1 10-2 10-6 10-23h-1l-1-1-1-2H84zM35 62h5v4.5l-1 1V79l2-.5v-14l2-.5-1 8q3.5 1.1 2-6.5l7 6 3 8.5 4 1.5q.8 2.3-1.5 1.5L53 84q1 15.7-8.5 22-3 3-10 2l-7.5-5.5q-5.9-6.3-5-18.5l-5-1q-1.1-2.7 1.5-2l2.5-1q1.4-9.4 8.5-14l2 6 1-8 2 15 .5-17zM25 84q2 5-2 4v4l4 9q3 5 11 6l6-2q8-5 8-19h-2v-2H25zM160 62h5v8.5l-1 1V79l2-.5v-14l2-.5-1 8q3.5 1.1 2-6.5l3.5 2.5q2.3-.7 1.5 1.5 4.9 3.4 5 10.5l4 1.5q.8 2.3-1.5 1.5l-2.5 1-2 11.5q-2.2 6.8-7.5 10.5-3 3-10 2l-7.5-5.5-5-11V84l-5-1q-1.1-2.7 1.5-2l3.5-2.5q1-9 7.5-12.5l2 6 1-8 1.5 2.5.5 12.5.5-17zm-10 22q2 5-2 4 0 7 4 13 3 5 11 6l6-2q9-5 8-19h-2v-2h-25z"/><path d="M23.5 106l11 18 1.5-9.5-2.5-3.5q1.3 2.3 6 1l1.5-.5q-3.8 3.3-2 11.5 2.7 1.1 2-1.5L51.5 106q10.5 2.5 16 10 5.1-7.7 16.5-8l2 6.5 9 14.5 2-.5v-7l1-3-3-4.5 6.5 1 2.5-1-3 4.5 1 1v9.5q2.7 1.1 2-1.5l13.5-19.5 6 1 10 7q4.7-7.8 15-10l11 18 1.5-9.5-2.5-3.5q1.3 2.3 6 1l1.5-.5q-3.8 3.3-2 11.5l3-1.5 9.5-15.5 12.5 6 4 6.5 2 10-1 4-4.5 4.5-3 1h-46l-1.5 1.5-3.5 5.5-8 3h-55l-8-3-2.5-2.5-2.5-4.5h-46L6 132.5q-1.4-8.9 1-14l8.5-9.5 8-3zM50 124l-2 2q-2 6 2 8h9l1-1v-9H50zm125 0l-2 2v7q3 2 11 1 4-1 2-8l-1-2h-10zm-59 6l-1 1-2 1v9l2 1h13l1-1v-8l-2-3h-11z"/><path d="M50.5 130l2.5.5-2.5.5v-1zM175.5 130l2.5.5-2.5.5v-1zM116.5 137l2.5.5-2.5.5v-1zM123.5 138l2.5.5-2.5.5v-1z"/><path d="M103.5 52l.5 20.5h-1l.5-20.5zM95.5 54L97 72.5h-1L95.5 54zM90.5 56q2.6-.8 1.5 2.5 2.3 1.3 1 6h-1q.4-6.2-1.5-8.5zM107.5 56l.5 5.5-1.5 2.5-.5-1.5 1.5-6.5zM112.5 58l3 4-3-4zM34.5 61l5.5.5-5.5.5v-1zM159 61l6 .5-5 .5-.5 17-.5-18zM33.5 63l1.5.5v15h-1v-14l-.5-1.5zM40.5 63l.5 9.5h-1l.5-9.5zM165.5 63l.5 14.5h-1l.5-14.5zM168.5 63l.5 7.5h-1l.5-7.5zM43.5 64l.5 5.5h-1l.5-5.5zM29.5 65q2.3-.7 1.5 1.5L29.5 65zM154.5 65l2.5 1.5-.5 5.5-.5-6-2.5 1 1-2zM31.5 68l.5 3.5h-1l.5-3.5zM24.5 70l-1 2 1-2zM50.5 70l1 2-1-2zM79.5 71l.5 2.5-2.5 1.5v-1q2.9.8 2-3zM39.5 75l.5 2.5h-1l.5-2.5zM17.5 80l-.5 1.5 1 2-2-1 1.5-2.5zM78.5 80q2.6-.8 1.5 2.5h-1l-.5-2.5zM85.5 80l29.5.5-29.5.5-1 1 1-2zM121.5 80l-.5 1.5-.5 2.5-.5-2.5 1.5-1.5zM142.5 80l-.5 1.5 1 2-2-1 1.5-2.5zM58.5 82l-1 2 1-2zM115.5 82l2.5.5-3 2 .5-2.5zM25.5 84h24l.5 1.5-1.5-.5h-23v-1zM145.5 84q2.5 1 1.5 5.5h-1l-.5-5.5z" opacity=".561"/><path d="M150 84l25 .5-24 .5v4h-1.5l-1.5.5q-.7-2.6 2-1.5v-4zM82 85l2 .5-1.5 2.5-.5-3zM117.5 85l.5 2.5h-1l.5-2.5zM25.5 86l.5 3q-2.7-1.1-2 1.5h-1V88q2.8 1 2.5-2zM21.5 87l.5 3.5h-1l.5-3.5zM51.5 87l.5 3.5h-1l.5-3.5zM53.5 87l.5 3.5h-1l.5-3.5zM119.5 88l.5 2.5h-1l.5-2.5zM178.5 88l.5 2.5h-1l.5-2.5zM24.5 99l1 2-1-2zM115.5 100l-1 2 1-2zM172.5 100l-3 4 3-4zM28.5 101l2 3-2-3zM46.5 101l-2 3 2-3zM88.5 101l3 4-3-4zM111.5 101l-3 4 3-4zM153.5 101l2 3-2-3zM26.5 102l3 4-3-4zM48.5 102l-3 4 3-4zM173.5 102l-4 5 4-5zM113.5 103l-3 4 3-4zM152.5 103l2 3-2-3zM87.5 104l2 3-2-3zM81.5 107l2.5.5-2.5.5v-1zM98.5 107l3.5.5-3.5.5v-1zM116.5 107l2.5.5-2.5.5v-1zM35.5 108l4.5.5-4.5.5v-1zM160.5 108l4.5.5-4.5.5v-1zM184.5 108l1 2-1-2zM97.5 110l5.5.5-5.5.5v-1zM35.5 111l3.5.5-3.5.5v-1zM71.5 111l-1 2 1-2zM160.5 111l3.5.5-3.5.5v-1zM172.5 112l-1 2 1-2zM165.5 113l-1 2 1-2zM28.5 114l1 2-1-2zM132.5 114l2.5.5q-2.1 3.3-2.5-.5zM94.5 115l2 3-2-3zM170.5 115l-1 2 1-2zM30.5 117l1 2-1-2zM88.5 117l1 2-1-2zM164.5 117l.5 5.5h-1l.5-5.5zM39.5 119l.5 3.5h-1l.5-3.5zM42.5 119l-1 2 1-2zM167.5 119l-1 2 1-2zM32.5 120l2 3-2-3zM90.5 120l1 2-1-2zM158.5 121l1 2-1-2zM107.5 122l-1 2 1-2zM92.5 123l1 2-1-2zM102.5 124l1 3 1.5-.5-3 1.5.5-4zM173.5 125l.5 7.5h-1l.5-7.5zM94.5 126l2.5.5-.5 2.5-2-3zM58.5 130l1.5 2.5h-1l-.5-2.5zM113.5 132l.5 7.5h-1l.5-7.5zM117.5 133l1 2-2.5-.5 1.5-1.5zM123.5 134l2.5.5-2.5.5v-1zM123.5 137l2.5.5-2.5.5v-1zM14.5 138l3.5.5-3.5.5v-1zM57.5 138l3.5 1.5-.5 1.5-.5-2q-3.3.8-2.5-1zM140.5 138l2.5.5-2.5.5v-1zM182.5 138l3.5.5-3.5.5v-1zM138.5 142l-3 4 3-4zM62.5 143l2 3-2-3zM75.5 148l49.5.5-49.5.5v-1z" opacity=".561"/></svg>