<svg xmlns="http://www.w3.org/2000/svg" viewBox="0 0 200 200"><path d="M93.5 18l3.5.5-3.5.5v-1zM102.5 18l3.5.5-3.5.5v-1zM97.5 24l5.5.5-5.5.5v-1zM69.5 28l-3 4 3-4zM76.5 31l-1 2 1-2zM133.5 31l2 3-2-3zM124.5 32l1 2-1-2zM64.5 33l-3 4 3-4zM72.5 34l-6 7 6-7zM129.5 36l2 3-2-3zM138.5 37l1 2-1-2zM65.5 43l3 4-3-4zM130.5 46l-2 3 2-3zM71.5 48l1 2-1-2zM148.5 61l.5 3.5h-1l.5-3.5zM84.5 62l.5 2 30 .5-31 .5.5-3zM84.5 66l.5 2 30 .5-29.5.5-1-3zM68.5 70l-2 3 2-3zM84.5 70l.5 2 30 .5-29.5.5-1-3zM148.5 70l.5 3.5h-1l.5-3.5zM63.5 75l-2 3 2-3zM138.5 77l2 3-2-3zM84.5 83l.5 7.5h-1l.5-7.5zM115.5 84l.5 6.5h-1l.5-6.5zM93.5 86l.5 4.5h-1l.5-4.5zM63.5 89l1 2-1-2zM65.5 92l2 3-2-3zM85.5 92l1 2-1-2zM92.5 92l-1 2 1-2zM114.5 92l-1 2 1-2zM140.5 94l-1 2 1-2zM131.5 95l-3 4 3-4zM60.5 96l1 2-1-2zM96.5 98l6.5.5-6.5.5v-1zM137.5 98l-4.5 5.5-.5 1.5-.5-1.5 5.5-5.5zM72.5 99l1 2-1-2zM124.5 101l-1 2 1-2zM67.5 105l-2 3 2-3zM72.5 109l-3 4 3-4zM95.5 109l8.5.5-8.5.5v-1zM137.5 109l1 2-1-2zM62.5 111l-1 2 1-2zM121.5 112l3 4-3-4zM133.5 114l1 2-1-2zM67.5 115l-1 2 1-2zM91 115l3 .5-2.5 1.5-.5-2zM106 115l2 .5-.5 2.5-1.5-3zM112.5 115l.5 2.5h-1l.5-2.5zM118.5 117l-1 2 1-2zM82.5 118l2.5 3.5h-1l-1.5-3.5zM87.5 118l.5 2.5h-1l.5-2.5zM77.5 120l1 2-1-2zM92.5 122l.5 2.5h-1l.5-2.5zM96.5 122l.5 2.5h-1l.5-2.5zM111.5 122l.5 2.5h-1l.5-2.5zM117.5 126l-1 2 1-2zM121.5 128l-1 2 1-2zM78.5 129l1 2-1-2zM84.5 129l1 2-1-2zM113.5 131l-1 2 1-2zM132.5 131l1.5 4.5-1.5 2.5v-7zM68.5 132l.5 9.5h-1l-1-6 1.5-3.5zM87.5 133l2 3-2-3zM117.5 133l-1 2 1-2zM82.5 134l1 2-1-2zM108.5 135l2.5.5q-2.1 3.3-2.5-.5zM141.5 135l.5 2.5h-1l.5-2.5zM114.5 137l-1 2 1-2zM85.5 138l1 2-1-2zM52.5 139l.5 2.5h-1l.5-2.5zM148.5 140l.5 3.5h-1l.5-3.5zM111.5 141l-1 2 1-2zM88.5 142l1 2-1-2zM58.5 143l.5 3.5h-1l.5-3.5zM142.5 145l.5 10.5h-1l.5-10.5zM107.5 146l-1 2 1-2zM92.5 147l1 2-1-2zM104.5 150l-1 2 1-2zM64.5 151l.5 2.5h-1l.5-2.5zM95.5 151l1 2-1-2zM133.5 151l.5 6.5h-1l.5-6.5zM51.5 152l.5 5.5h-1l.5-5.5zM102.5 153l.5 7.5h-1l.5-7.5zM52.5 159l1 2-1-2zM148.5 159l-1 2 1-2zM68.5 161l28.5.5-28.5.5v-1zM69.5 166h62l.5 1.5-1.5-.5h-61v-1zM130.5 169l-2 3 2-3zM135.5 173l-3 4 3-4zM88.5 175l20.5.5-20.5.5v-1zM80.5 181l2.5.5-2.5.5v-1zM115.5 181l2.5.5-2.5.5v-1z" opacity=".224"/><path d="M97.5 18l4.5.5-4.5.5v-1zM89.5 19l2.5.5-2.5.5v-1zM93.5 24l3.5.5-3.5.5v-1zM103.5 24l2.5.5-2.5.5v-1zM74.5 25l-1 2 1-2zM71.5 27l-1 2 1-2zM129.5 28l2 3-2-3zM74.5 32l-1 2 1-2zM126.5 33l2 3-2-3zM136.5 35l1 2-1-2zM61.5 37l-1 2 1-2zM132.5 39l1 2-1-2zM134.5 43l-3 4 3-4zM69.5 47l1 2-1-2zM124.5 51l-1 2 1-2zM51.5 60l.5 4.5h-1l.5-4.5zM85.5 62l29.5.5-29.5.5v-1zM148.5 65l.5 4.5h-1l.5-4.5zM85.5 66l29.5.5-29.5.5v-1zM69.5 68l-1 2 1-2zM85.5 70l29.5.5-29.5.5v-1zM131.5 70l6 7-6-7zM51.5 71l.5 2.5h-1l.5-2.5zM65.5 73l-1 2 1-2zM60.5 77l-1 2 1-2zM107.5 85l-.5 1.5-.5 4.5-.5-4.5 1.5-1.5zM107.5 92l1 2-1-2zM133.5 93l-1 2 1-2zM59.5 94l1 2-1-2zM67.5 95l4 5-4-5zM138.5 96l-1 2 1-2zM62.5 98l6.5 7.5h-1L62.5 98zM127.5 99l-2 3 2-3zM74.5 101l1 2-1-2zM97.5 102l5.5.5-5.5.5v-1zM77.5 103l1 2-1-2zM105.5 103l2.5.5-2.5.5v-1zM133.5 105l3 4-3-4zM126.5 107l3.5 2.5-2.5-1.5-1-1zM124.5 108l-1 2 1-2zM64.5 109l-1 2 1-2zM92.5 109l2.5.5-2.5.5v-1zM104.5 109l2.5.5-2.5.5v-1zM121.5 110l-1 2 1-2zM131.5 111l2 3-2-3zM138.5 111l1 2-1-2zM78.5 112l-3 4 3-4zM68.5 113l-1 2 1-2zM82.5 113l-2 3 2-3zM116.5 113l3.5 4.5h-1l-2.5-4.5zM87.5 115l.5 2.5h-1l.5-2.5zM80.5 117l1 2-1-2zM75.5 118l1 2-1-2zM93.5 118l1.5.5-3.5 2.5 2-3zM116.5 119l-.5 1.5-.5 1.5-.5-1.5 1.5-1.5zM122.5 119l-1 2 1-2zM102.5 122l.5 3.5h-1l.5-3.5zM77.5 125l1.5 3.5-2-1 .5-2.5zM92.5 125l.5 2.5h-1l.5-2.5zM82.5 127l1 2-1-2zM115.5 129l-1 2 1-2zM93.5 130l1.5 2.5-2-1 .5-1.5zM119.5 130l-1 2 1-2zM80.5 131l1 2-1-2zM85.5 131l1 2-1-2zM112.5 133l-1 2 1-2zM115.5 135l-1 2 1-2zM147.5 135l.5 2.5h-1l.5-2.5zM84.5 136l1 2-1-2zM89.5 136l1 2-1-2zM107.5 137q3 1.5 0 3v-3zM58.5 139l.5 3.5h-1l.5-3.5zM112.5 139l-1 2 1-2zM87.5 140l1 2-1-2zM142.5 140l.5 4.5h-1l.5-4.5zM134.5 141l.5 1.5-1.5 8.5-.5-7.5 1.5-2.5zM52.5 142l.5 4.5h-1l.5-4.5zM66.5 142l.5 2.5h-1l.5-2.5zM109.5 143l-1 2 1-2zM90.5 144l1 2-1-2zM148.5 144l.5 6.5h-1l.5-6.5zM67.5 147l.5 13.5h-1l.5-13.5zM105.5 148l-1 2 1-2zM94.5 149l1 2-1-2zM57.5 152l.5 3.5h-1l.5-3.5zM136.5 152l.5 2.5h-1l.5-2.5zM97.5 153l.5 7.5h-1l.5-7.5zM133.5 158l.5 2.5-1.5 1.5h-30v-1h30l1-3zM62.5 164l.5 2.5h-1l.5-2.5zM70.5 170l2 3-2-3zM65.5 173l1 2-1-2zM82.5 175l5.5.5-5.5.5v-1zM109.5 175l6.5.5-6.5.5v-1zM68.5 176l1 2-1-2zM83.5 181l31.5.5-31.5.5v-1z" opacity=".757"/><path d="M92.5 19h15l11 3q10.4 4.6 17.5 12.5l10 17 2 8v15l-6 17-10 13q10.2 8.3 14 23l2 11 1 19-2.5 3.5q-5.7.3-8.5 3.5-.4 9.1-6.5 12.5l-12 4h-41L67 176l-4-7.5v-4l-2.5-2.5q-6.4.4-8.5-3.5l1-21 3-13q3.7-11.3 11.5-18.5 2.3.8 1.5-1.5-16.9-11.6-18-39 2.8-1.7 1-8l4-12q5.3-9.7 13.5-16.5 9-7.5 23-10zm1.5 5q-12 2-19 8L65 42v2l11 9q-2 10-8 18l-9 8 1 6 7 11q9 11 26 14l19-1 14-7q10-8 15-21 1-4-1-3-13-8-16-25l11-9-1-3q-7-9-17-14l-11-3H94zm33 83l-7 5q5 1 4 7l-4 3 2 4-20 27v9h31l1-1v-17l-1-1 1-5 4 20 5-2-1-22-3-11-5-9-7-7zm-53 1q-8 6-12 16l-4 16q1 10-1 16l7 2 1-2 2-16h1q2 6-1 8v13l2 1h28l1-1v-7l-19-24-1-5 2-2-5-5 4-6-5-4zm9 5q-3 0-3 5l4 3-2 4v3l7 9 4 3-4-12-1-12-1-1q1-4-4-2zm32 0l-3 1q0 14-5 24l1 2 10-13-2-4q-1-4 3-5 2 1 1-1 0-4-5-4zm-24 2l1 3 2-1q1-3-3-2zm15 0l2 3 1-1q1-4-3-2zm-12 3l-3 3 2 11 2 1 2-7q1-5-2-6 1-3-1-2zm10 0l-2 5 3 10 3-12-4-3zm-35 48l1 5 5 3 8 2h33q1-2 7-1 6-2 9-6v-3H69z" opacity=".996"/><path d="M85.5 63l29.5.5-29.5.5v-1zM85.5 67l29.5.5-29.5.5v-1zM85.5 71l29.5.5-29.5.5v-1zM85 84q5.3-.7 8 2.5 1.3 6.3-2.5 7.5-4.7.8-5.5-2.5V84zM111.5 84h3.5v6.5l-1 2.5-4.5 1q-3.7-1.2-2.5-7.5l4.5-2.5zM95.5 99q8.9-1.4 12.5 2.5.9 3.4-4.5 1.5-1.3-2.2-6-1l-5 2-1.5-2.5 4.5-2.5z" opacity=".996"/></svg>