<svg xmlns="http://www.w3.org/2000/svg" viewBox="0 0 200 200"><path d="M93.5 8l2.5.5-2.5.5V8zM54.5 13l-2 3 2-3zM147.5 15l2 3-2-3zM58.5 19l-1 2 1-2zM113.5 40l-3 4 3-4zM151.5 43l.5 6.5h-1l.5-6.5zM118.5 45l-4 5 4-5zM130.5 47l1 2-1-2zM49.5 50l1.5 3.5-2-1 .5-2.5zM76.5 51l3.5.5-3.5.5v-1zM124.5 51l1 2-1-2zM36.5 58l-1 2 1-2zM64.5 58l6.5.5-6.5.5v-1zM82.5 58l2.5.5-2.5.5v-1zM164.5 59l2 3-2-3zM40.5 64l-2 3 2-3zM159.5 64l1 2-1-2zM135.5 118l-1 2 1-2zM148.5 120l1 2-1-2zM57.5 124l-1 2 1-2zM61.5 126l4 5-4-5zM144.5 126l1 2-1-2zM137.5 127l-2 3 2-3zM103.5 135l2.5.5-2.5.5v-1zM185.5 141l2 3-2-3zM84.5 142l-1 2 1-2zM23.5 143l-1 2 1-2zM116.5 144l1 2-1-2zM90.5 146l-1 2 1-2zM141.5 146l-1 2 1-2zM79.5 148l-1 2 1-2zM111.5 149l1 2-1-2zM147.5 150l-1 2 1-2zM122.5 151l1 2-1-2zM85.5 152l-1 2 1-2zM54.5 153l2 3-2-3zM74.5 154l-1 2 1-2zM116.5 155l1 2-1-2zM141.5 156l-1 2 1-2zM80.5 158l-1 2 1-2zM1.5 167l.5 2.5H1l.5-2.5zM198.5 167l.5 2.5h-1l.5-2.5zM163.5 178l3 4-3-4zM44.5 180l3 4-3-4zM84.5 180l3 4-3-4zM124.5 180l3 4-3-4zM33.5 181l-2 3 2-3zM6.5 183l3.5 4.5H9L6.5 183zM72.5 183l-3 4 3-4zM112.5 183l-3 4 3-4zM152.5 183l-3 4 3-4zM191.5 185l-1 2 1-2zM30.5 197l-1 2 1-2zM48.5 197l1 2-1-2zM88.5 197l1 2-1-2zM128.5 197l1 2-1-2z" opacity=".949"/><path d="M83.5 1l2.5.5-2.5.5V1zM120.5 6l1 2-1-2zM127.5 8l6.5.5-6.5.5V8zM85.5 9l3.5.5-3.5.5V9zM119.5 17l1 2-1-2zM60.5 18l-4 5 4-5zM141.5 20l3 4-3-4zM42.5 35l.5 2.5h-1l.5-2.5zM50.5 37l.5 2.5h-1l.5-2.5zM113.5 39l-4 5 4-5zM119.5 45l1 2-1-2zM117.5 47l-1 2 1-2zM87.5 50l3.5.5-3.5.5v-1zM125.5 53l2 3-2-3zM150.5 53l.5 2.5h-1l.5-2.5zM138.5 54l1 2-1-2zM89.5 58l3.5.5-3.5.5v-1zM130.5 58l2 3-2-3zM34.5 59l-1 2 1-2zM56.5 59l2.5.5-2.5.5v-1zM53.5 60l-1 2 1-2zM51.5 63l.5 10.5h-1l.5-10.5zM43.5 64l.5 14.5h-1l.5-14.5zM156.5 64l.5 14.5h-1l.5-14.5zM158.5 64l2 3-2-3zM148.5 67l.5 4.5h-1l.5-4.5zM37.5 70l.5 4.5h-1l.5-4.5zM162.5 70l.5 4.5h-1l.5-4.5zM170.5 74l.5 2.5h-1l.5-2.5zM39.5 79l1 2-1-2zM52.5 83l.5 2.5h-1l.5-2.5zM147.5 83l.5 2.5h-1l.5-2.5zM163.5 87l-1 2 1-2zM51.5 119l-1 2 1-2zM150.5 121l1 2-1-2zM47.5 122l-1 2 1-2zM68.5 122l1 2-1-2zM142.5 125l1 2-1-2zM126.5 126l-1 2 1-2zM54.5 127l-1 2 1-2zM147.5 129l1.5 3.5h-1l-.5-3.5zM42.5 134l1 2-1-2zM18.5 137l-1 2 1-2zM181.5 137l1 2-1-2zM115.5 141l2.5 3.5-3-2 .5-1.5zM96.5 143l7.5.5-7.5.5v-1zM106.5 144l2 3-2-3zM142.5 144l-1 2 1-2zM178.5 145l5 6-5-6zM9.5 146l-1 2 1-2zM20.5 146l-3 4 3-4zM58.5 146l5 6-5-6zM80.5 146l-1 2 1-2zM89.5 148l-1 2 1-2zM50.5 149l1 2-1-2zM121.5 149l1 2-1-2zM111.5 150l2 3-2-3zM75.5 152l-1 2 1-2zM146.5 152l-5 6 5-6zM84.5 154l-1 2 1-2zM125.5 154l1 2-1-2zM117.5 157l1 2-1-2zM79.5 160l-1 2 1-2zM73.5 164l2.5.5-2.5.5v-1zM123.5 164l2.5.5-2.5.5v-1zM1.5 170l7.5.5-7.5.5v-1zM191.5 170l7.5.5-7.5.5v-1zM13.5 175l-1 2 1-2zM23.5 175l1 2-1-2zM54.5 175l-1 2 1-2zM94.5 175l-1 2 1-2zM134.5 175l-1 2 1-2zM4.5 177l2.5.5-2.5.5v-1zM30.5 177l2.5.5-2.5.5v-1zM45.5 177l2.5.5-2.5.5v-1zM71.5 177l2.5.5-2.5.5v-1zM85.5 177l2.5.5-2.5.5v-1zM111.5 177l2.5.5-2.5.5v-1zM125.5 177l2.5.5-2.5.5v-1zM151.5 177l2.5.5-2.5.5v-1zM166.5 177l2.5.5-2.5.5v-1zM192.5 177l2.5.5-2.5.5v-1zM41.5 178l3 4-3-4zM81.5 178l3 4-3-4zM121.5 178l3 4-3-4zM36.5 179l-2 3 2-3zM163.5 179l1 2-1-2zM2.5 180l4 5-4-5zM76.5 180l-4 5 4-5zM116.5 180l-4 5 4-5zM156.5 180l-4 5 4-5zM195.5 182l-4 5 4-5zM193.5 197l.5 1.5-2 1 1.5-2.5zM6.5 198l1 2q-2.8.7-1-2zM72.5 198l.5 2-2-.5 1.5-1.5zM112.5 198l.5 2-2-.5 1.5-1.5zM152.5 198l.5 2-2-.5 1.5-1.5z" opacity=".408"/><path d="M91.5 1q22.4-1.4 33 9l1-1h9q11.9 2.6 17.5 11.5 4.5 6 6 15l1 16-1 4 10 8q3.1 4.4 2 13-1.9 7.7-7.5 11.5l-8.5 3.5q-2.2 15.3-9 26l8.5 7.5q12.6 2.9 22 9l15.5 13.5 6 11 1 11.5h-7v-6.5q-4-13.5-14.5-20.5-7.6-6.9-20-9-4.8 13.2-14 22-6.4 7.2-19 8L107 143H93.5l-4.5 4.5L75.5 164q-17.1-2.4-24.5-14.5l-5-8-2-7.5q-19.4 4.4-30 18.5l-5 11v6.5H2v-7.5q4.5-16 16.5-24.5 10.5-8.5 26-12l10.5-8.5-5-10-4-16-1.5-1.5q-8.2-.7-11.5-6.5-4.7-4.8-3-16l4-7.5 9-4q-2.4-3.9-1-13.5l3-15Q48.8 16.8 57.5 11l15-7 9-2h9l1-1zM94 8l-1 1H83l-9 2-15 8-7 10-3 15v9l2 1 4-2q6 2 8-1h13l1 1q6-2 17-1l8-2 9-5q6-5 9-14l10 18q6 11 21 11v-8l1-1-2-17-6-12-10-5q-8-1-12 2-3 1-2-1l-8-7-9-2h-9zm25 37q-6 8-16 11l-9 2H83l-1 1H72l-1-1-15 1-4 1-1 3v18l1 1 1 12q3 14 11 25l13 11 9 4 9 2q21 1 33-9 11-9 16-23l4-16 1-20-1-2-7-1-8-5-12-13q1-3-2-2zM43 63l-2 1-4 5q-1 6 1 10l5 4h2l-1-1V64l-1-1zm113 0v19l-1 1h3l5-7q1-7-2-10l-5-3zm-98 61l-8 7q1 8 6 14l10 9q2 3 8 2l11-14-10-5-15-13h-2zm83 0q-10 13-27 18l13 14h3l7-4q10-7 12-21l-8-7z"/><path d="M68 75h19v8H68v-8zM112 75h19v8h-19v-8zM18.5 168l6 9 10 1 1.5 1.5-8 7 3 12-1.5-.5-11-5-11 6-.5-1.5 3-11-8-7 .5-1.5h7l4.5-1 4.5-9zM59.5 168l6 9 10 1 1.5 1.5-8 7 3 12-1.5-.5-11-5-11 6 .5-1.5 2-11-8-6.5.5-2h8l3.5-1 4.5-9zM99.5 168l6 9 10 1 1.5 1.5-8 7 3 12-1.5-.5-11-5-11 6 .5-1.5 2-11-8-6.5.5-2h8l3.5-1 4.5-9zM139.5 168l6 9 10 1 1.5 1.5-8 7 3 12-1.5-.5-11-5-11 6 .5-1.5 2-11-8-6.5.5-2h8l3.5-1 4.5-9zM180.5 168l6 9 10 1 1.5 1.5-8 7 3 12-1.5-.5-11-5-11 6 .5-1.5 2-11-7.5-8.5q8.9 1.4 12.5-2.5l3.5-7.5z"/><path d="M86.5 1l2.5.5-2.5.5V1zM96.5 8l5.5.5-5.5.5V8zM56.5 11l-1 2 1-2zM145.5 13l1 2-1-2zM51.5 16l-1 2 1-2zM127.5 16l2.5.5-2.5.5v-1zM131.5 16l2.5.5-2.5.5v-1zM150.5 18l1 2-1-2zM49.5 45l.5 4.5h-1l.5-4.5zM132.5 49l4 5-4-5zM57.5 51l2.5.5-2.5.5v-1zM158.5 53l.5 2.5h-1l.5-2.5zM128.5 56l1 2-1-2zM85.5 58l3.5.5-3.5.5v-1zM29.5 70l.5 4.5h-1l.5-4.5zM170.5 71l.5 2.5h-1l.5-2.5zM148.5 72l.5 6.5h-1l.5-6.5zM51.5 74l.5 4.5h-1l.5-4.5zM87.5 75l.5 7.5h-1l.5-7.5zM131.5 75l.5 7.5h-1l.5-7.5zM160.5 79l-2 3 2-3zM33.5 84l3 4-3-4zM166.5 84l-2 3 2-3zM54.5 117l-1 2 1-2zM145.5 117l2 3-2-3zM65.5 119l2 3-2-3zM133.5 120l-5 6 5-6zM152.5 123l1 2-1-2zM45.5 124l-1 2 1-2zM59.5 124l1 2-1-2zM70.5 124l2 3-2-3zM140.5 124l1.5.5-3.5 2.5 2-3zM51.5 129l-.5 1.5-.5 1.5-.5-1.5 1.5-1.5zM134.5 130l-2 3 2-3zM66.5 131l1 2-1-2zM96.5 135l6.5.5-6.5.5v-1zM16.5 139l-6 7 6-7zM183.5 139l1 2-1-2zM82.5 144l-1 2 1-2zM92.5 144l-1 2 1-2zM188.5 144l2 3-2-3zM118.5 146l2 3-2-3zM109.5 147l1 2-1-2zM139.5 148l-2 3 2-3zM16.5 150l-1 2 1-2zM77.5 150l-1 2 1-2zM87.5 150l-1 2 1-2zM52.5 151l1 2-1-2zM114.5 153l1 2-1-2zM57.5 156l1 2-1-2zM82.5 156l-1 2 1-2zM119.5 159l1 2-1-2zM169.5 177l2.5.5-2.5.5v-1zM198.5 178l.5 1.5-3 2 2.5-3.5zM167.5 182l4 5-4-5zM30.5 184l-2 3 2-3zM48.5 184l2.5 3.5h-1l-1.5-3.5zM88.5 184l2.5 3.5h-1l-1.5-3.5zM128.5 184l2.5 3.5h-1l-1.5-3.5z" opacity=".749"/></svg>