<svg xmlns="http://www.w3.org/2000/svg" viewBox="0 0 200 200"><path d="M30.5 5l1 2-1-2zM142.5 11l1 2-1-2zM71.5 15l1.5 2.5h-1l-.5-2.5zM.5 17l3.5.5-3.5.5v-1zM52.5 18l2.5.5-2.5.5v-1zM59.5 18l2.5.5-2.5.5v-1zM175.5 29l2 3-2-3zM16.5 40l-1 2 1-2zM182.5 43l.5 6.5h-1l.5-6.5zM15.5 45l-1 2 1-2zM.5 48l9.5.5-9.5.5v-1zM53.5 48l1 2-1-2zM20.5 53l1 2-1-2zM57.5 53l14.5.5-14.5.5v-1zM77 53l15 .5-13.5.5-1 1-.5-2zM73.5 54l1 2-1-2zM23.5 56l1 2-1-2zM78.5 56l.5 3.5h-1l.5-3.5zM58.5 63l12.5.5-12.5.5v-1zM136.5 63l-1 2 1-2zM58.5 66l13.5.5-13.5.5v-1zM73.5 67l1 2-1-2zM88.5 67l.5 3.5h-1l.5-3.5zM173.5 68l-1 2 1-2zM78.5 69l.5 3.5h-1l.5-3.5zM75.5 70l.5 2.5h-1l.5-2.5zM74.5 74l-1 2 1-2zM56.5 76l15.5.5-15.5.5v-1zM52.5 79l13.5.5-13.5.5v-1zM49.5 80l-1 2 1-2zM68.5 80l1 2-1-2zM15.5 81l4 5-4-5zM47.5 83l.5 2.5h-1l.5-2.5zM70.5 83l.5 2.5h-1l.5-2.5zM48.5 87l1 2-1-2zM69.5 87l-1 2 1-2zM27.5 89l18.5.5-18.5.5v-1zM51.5 89l15.5.5-15.5.5v-1zM139.5 89l.5 23.5h-1l.5-23.5zM142.5 89l.5 22.5h-1l.5-22.5zM159.5 89l40.5.5-40.5.5v-1zM82.5 96l-2 3 2-3zM178.5 112l1 2-1-2zM105.5 116l.5 3.5h-1l.5-3.5zM180.5 124l-2 3 2-3zM9.5 127l2.5.5-2.5.5v-1zM27.5 134l1 2-1-2zM110.5 141l4 5-4-5zM155.5 144l2 3-2-3zM163.5 153l1 2-1-2zM170.5 161l2 3-2-3zM149.5 162l1 2-1-2zM177.5 169l2 3-2-3zM156.5 170l1 2-1-2zM163.5 178l1 2-1-2zM84.5 179l-1 2 1-2zM184.5 179l.5 2.5h-1l.5-2.5zM106.5 182l-1 2 1-2zM78.5 186l.5 3.5h-1l.5-3.5zM97.5 189l-1 2 1-2zM80.5 193l1 2-1-2z" opacity=".447"/><path d="M27.5 6l-1 2 1-2zM136.5 13l1 2-1-2zM130.5 27l4.5.5-4.5.5v-1zM127.5 28l-.5 1.5-.5 2.5-.5-2.5 1.5-1.5zM136.5 28l-2 3 2-3zM23.5 40l77.5.5-77.5.5v-1zM57.5 55l.5 7.5h-1l.5-7.5zM41.5 60l1 2-1-2zM134.5 65l-1 2 1-2zM44.5 66l.5 6.5h-1l.5-6.5zM175.5 66l-1 2 1-2zM57.5 67l.5 5.5h-1l.5-5.5zM88.5 71l.5 2.5h-1l.5-2.5zM155.5 72l.5 30.5h-1l.5-30.5zM45.5 74l1 2-1-2zM42.5 76l2 3-2-3zM123.5 76l-1 2 1-2zM.5 81l7.5.5-7.5.5v-1zM160.5 105l1 2-1-2zM58.5 118l2.5.5-2.5.5v-1zM6.5 127l2.5.5-2.5.5v-1zM25.5 132l1 2-1-2zM29.5 136l2.5.5q-2.1 3.3-2.5-.5zM154.5 138l45.5.5-45.5.5v-1zM152.5 141l2 3-2-3zM161.5 151l1 2-1-2zM143.5 155l2 3-2-3zM168.5 159l1 2-1-2zM151.5 164l1 2-1-2zM175.5 167l1 2-1-2zM158.5 172l1 2-1-2zM112.5 177l-1 2 1-2zM165.5 180l1 2-1-2zM175.5 188l2.5.5-2.5.5v-1z" opacity=".698"/><path d="M28.5 4l-1 2 1-2zM32.5 7l3 4-3-4zM24.5 8l-1 2 1-2zM137.5 9l-1 2 1-2zM143.5 17l2.5.5-2.5.5v-1zM55.5 18l3.5.5-3.5.5v-1zM153.5 30l-1 2 1-2zM126.5 32l1 2-1-2zM80.5 34l1 2-1-2zM22.5 37l59.5.5-59.5.5v-1zM103.5 41l1 2-1-2zM14.5 42l-1 2 1-2zM17.5 43l-1 2 1-2zM.5 45l9.5.5-9.5.5v-1zM51.5 50l1 2-1-2zM55.5 50l45.5.5-45.5.5v-1zM23.5 52l2 3-2-3zM54.5 56l.5 15.5h-1l.5-15.5zM74.5 61l-1 2 1-2zM76.5 63l-.5 1.5 1 2-2-1 1.5-2.5zM132.5 66l-9 10 9-10zM155.5 66l1 2-1-2zM158.5 71l6.5 1.5-5.5.5-1-2zM53.5 74l-1 2 1-2zM76.5 76l-1 2 1-2zM45.5 78l1 2-1-2zM120.5 79l-1 2 1-2zM13.5 83l5 6-5-6zM20.5 86l1 2-1-2zM95.5 89l-1 2 1-2zM28.5 92l38.5.5-38.5.5v-1zM79.5 100l-1 2 1-2zM74.5 113l.5 6.5h-1l.5-6.5zM105.5 113l.5 2.5h-1l.5-2.5zM144.5 116l2 3-2-3zM105.5 120l.5 2.5h-1l.5-2.5zM150.5 123l.5 13.5h-1l.5-13.5zM177.5 123l-1 2 1-2zM39.5 126l-3 4 3-4zM112.5 139l3 4-3-4zM116.5 146l1 2-1-2zM158.5 147l2 3-2-3zM165.5 155l2 3-2-3zM145.5 158l3 4-3-4zM173.5 164l2 3-2-3zM152.5 166l3 4-3-4zM99.5 168l-1 2 1-2zM120.5 171l-2 3 2-3zM180.5 172l2 3-2-3zM159.5 174l3 4-3-4zM114.5 176l-1 2 1-2zM109.5 180l-1 2 1-2zM81.5 181l-2 3 2-3zM166.5 182l3 4-3-4zM100.5 187l-1 2 1-2z" opacity=".118"/><path d="M14.5 41l-1 2 1-2zM21.5 55l1 2-1-2zM40.5 66l.5 5.5h-1l.5-5.5zM130.5 69l-4 5 4-5zM153.5 69l1 2-1-2zM159.5 90l.5 12.5h-1l.5-12.5zM199.5 90l.5 47.5h-1l.5-47.5zM145.5 116l1 2-1-2zM39.5 125l-4 5 4-5zM157.5 147l1 2-1-2zM164.5 155l1 2-1-2zM148.5 160l1 2-1-2zM171.5 163l1 2-1-2zM100.5 168l-2 3 2-3zM155.5 168l1 2-1-2zM119.5 171l-1 2 1-2zM179.5 172l1 2-1-2zM162.5 176l1 2-1-2zM81.5 182l-1 2 1-2zM169.5 184l2 3-2-3z" opacity=".976"/><path d="M29.5 5l6 7q5.7 5.3 15 7h13l8-3Q73 29.5 81 36.5l-60.5.5-11 8H0V18.5l.5-.5h7q14.4-3.1 22-13zM138.5 10q4-.5 4.5 2.5l2 4-1.5.5-6.5-3.5 1.5-3.5zM160.5 27h9l7.5 4.5q6.2 6.3 5 20l-5 13-4.5 4.5q-4.8 4-13.5 3 .1-4.9-3.5-7l-8-3q-5 2.5 0 5 5.6.5 7.5 4.5v32l5.5 7.5 13 3 4.5 3.5q1 5.5-2.5 6.5l-3 1-24-6-4.5-4.5-1-2v-24l-1.5-1.5-2.5 1.5v26l1 1-4.5 9.5-4-2-2.5 1 1.5 4 21 13 5.5 5.5 26 30 1 6-3.5 4.5-7 1-31-34-21-8-9.5-8.5q-7-8-6-24l2-10 7-15q8.7-14.3 21.5-24.5l9.5-7.5 3-18 7.5-9.5 4-2zM128.5 28l7.5.5q-1.9 4-7.5 4.5l-1.5-3.5 1.5-1.5z"/><path d="M22.5 41h79l2.5 2.5q1 4.5-1.5 5.5l-2 1h-45q-5.4-7.1-17-8L37 46q10.3.9 16 7.5l1 3v15L50.5 76 45 73.5q1.6-11.1-4.5-14.5l-10-2-8-7H19v2.5l3.5 4.5 6 4 8 1 3.5 2.5 1 11 4 5q-2.5 1.5-1 7l.5 1.5h-18l-15-11H0V49h11.5l11-8z"/><path d="M58 54h13.5l2.5 1 1 4.5-3.5 3.5H58v-9z"/><path d="M78.5 54h12l.5 1.5q-4.5 6.5-3 19Q89.9 84 94 90q-10.8 1.9-16 10.5-5.8 6.9-4 20.5l-10.5-3h-7q-14.1 2.4-21.5 11.5l-4.5 7.5q-6.2-11.2-25-10l-5 2L0 82h9.5q5.7 7.3 15 11h44l4.5-3.5 1-8q-2.2-1.2.5-2.5l3.5-2.5 1-8-2-4q3.2-2.3 2-9l-.5-1.5z"/><path d="M58 67h13.5l2.5 1 1 4.5-1 2.5-2.5 1H57q1.9-2.8 1-9zM51.5 80h15l2.5 1 1 4.5-1 2.5-2.5 1h-15L49 88l-1-4.5 1-2.5 2.5-1zM160 90h39v48h-44.5l-3.5-2.5v-11l2.5-.5 17 5h5l4.5-2 2-3.5v-8l-4.5-4.5-15-4-2.5-2.5V90zM108.5 140q6 8 15.5 12.5l-3 17-5.5 5.5-23 18-6 3-5.5-2-2-3.5v-5l22-17 2-4 4-22 1.5-2.5z"/><path d="M25.5 8l-1 2 1-2zM32.5 8l2 3-2-3zM154.5 30l-1 2 1-2zM38.5 42l-1 2 1-2zM18.5 43l-1 2 1-2zM23.5 51l3 4-3-4zM76.5 64l1.5 2.5-2-1 .5-1.5zM132.5 67l-1 2 1-2zM52.5 74l-1 2 1-2zM125.5 74l-1 2 1-2zM13.5 84l4 5-4-5zM177.5 122l-1 2 1-2zM129.5 126l1 2-1-2zM113.5 139l3 4-3-4zM159.5 149l1 2-1-2zM166.5 157l1 2-1-2zM146.5 158l1 2-1-2zM173.5 165l1 2-1-2zM153.5 166l1 2-1-2zM160.5 174l1 2-1-2zM167.5 182l1 2-1-2z" opacity=".871"/></svg>