<svg xmlns="http://www.w3.org/2000/svg" viewBox="0 0 200 200"><path d="M158.5 27l.5 8.5h-1l.5-8.5zM139.5 37l-1 2 1-2zM165.5 39l3 4-3-4zM81.5 41l7.5.5-7.5.5v-1zM133.5 43l-1 2 1-2zM169.5 44l1 2-1-2zM68.5 46l-2 3 2-3zM101.5 46l1 2-1-2zM150.5 48l2.5.5-2.5.5v-1zM147.5 49l-2.5 3.5-.5 1.5-.5-1.5 3.5-3.5zM62.5 52l-1 2 1-2zM129.5 52l.5 7.5h-1l.5-7.5zM108.5 53l1 2-1-2zM60.5 55l-1 2 1-2zM144.5 59l3 4-3-4zM149.5 63l5.5.5-5.5.5v-1zM56.5 64l.5 2.5h-1l.5-2.5zM162.5 66l1 2-1-2zM132.5 67l1 2-1-2zM166.5 69l1 2-1-2zM138.5 73l1 2-1-2zM146.5 77l2.5.5-2.5.5v-1zM154.5 78l1 2-1-2zM172.5 79l.5 2.5h-1l.5-2.5zM111.5 82l.5 1.5-2 1 1.5-2.5zM158.5 83l.5 4.5h-1l.5-4.5zM129 85l15 .5-14 .5-.5 3-.5-4zM60.5 86l1 2-1-2zM107.5 89l-4 5 4-5zM157.5 89l-2 3 2-3zM149.5 92l4.5.5-4.5.5v-1zM101.5 94l-1 2 1-2zM169.5 97l-6 7 6-7zM79.5 99l4.5.5-4.5.5v-1zM86.5 99l4.5.5-4.5.5v-1zM134.5 99l2 3-2-3zM159.5 105l-.5 1.5q1.8 6.7-1.5 8.5l-13.5-.5 14-.5v-7.5l1.5-1.5zM79.5 107l12.5.5-12.5.5v-1zM73.5 108l2.5.5-2.5.5v-1zM95.5 108l2.5.5-2.5.5v-1zM55.5 115l-1 2 1-2zM115.5 115l1 2-1-2zM52.5 117l-1 2 1-2zM118.5 117l1 2-1-2zM48.5 120l-3 4 3-4zM122.5 120l9 10-9-10zM43.5 125l-4 5 4-5zM132.5 131l1 2-1-2zM37.5 132l-1 2 1-2zM34.5 137l-.5 1.5-1.5 3.5-.5-1.5 2.5-3.5zM27.5 156l.5 3.5h-1l.5-3.5zM143.5 157l.5 3.5h-1l.5-3.5zM28.5 170l1 2-1-2zM142.5 170l-1 2 1-2z" opacity=".769"/><path d="M137.5 39l-3 4 3-4zM103.5 48l4 5-4-5zM65.5 49l-2 3 2-3zM134.5 69l3 4-3-4zM167.5 71l1 2-1-2zM156.5 79l1 2-1-2zM108.5 87l-1 2 1-2zM62.5 88l5 6-5-6zM144.5 89l2 3-2-3zM133.5 97l1 2-1-2zM137.5 101l1 2-1-2zM120.5 119l1 2-1-2zM39.5 130l-1 2 1-2z" opacity=".996"/><path d="M144 27h14v8.5l1.5.5 8.5 6.5q4.8 5.1 5 13.5h-13.5l-.5-2.5-3.5-4.5-6-1-5.5 4.5-1 4 2 5.5 4.5 2 9 1 8.5 5.5q6.3 5.2 6 17-2.1 10.4-9.5 15.5l-5.5 2v9h-14v-8.5l-1.5-.5-7.5-5.5q-4.8-5.1-5-13.5h12.5l1.5 1.5q-.5 4 2.5 4.5l7 1 4.5-3.5 1-7-2.5-3.5-14-3-9.5-8.5q-4.3-5.2-3-16 2.4-9.1 9.5-13.5l4.5-2.5V27zM79.5 42q10.9-1.4 17 2L109 54.5q5.7 6.8 5 20-2.4 12.1-10.5 18.5l-12 6h-13Q66.9 95.6 61 86.5q-4.9-6.6-5-18l5-14 7.5-7.5 11-5zM76.5 108h17l12 3q15.6 6.4 25.5 18.5l10 18 3 19-2 4.5-4.5 2h-104l-5.5-3.5-1-8 2-11 6-14L49.5 120q10.7-8.8 27-12z"/></svg>