<svg xmlns="http://www.w3.org/2000/svg" viewBox="0 0 200 200"><path d="M109.5 4l1 2-1-2zM89.5 6l-1 2 1-2zM87.5 28l1 2-1-2zM113.5 29l-2 3 2-3zM90.5 31l1 2-1-2zM78.5 39l16.5.5-16.5.5v-1zM106.5 39l17.5.5-17.5.5-5 5 5-6zM69.5 43l-2 3 2-3zM63.5 54l.5 56.5h-1l.5-56.5zM79.5 61l.5 130.5h-1L79.5 61zM104.5 61l.5 2 13 .5-14 .5.5-3zM126.5 113l1 2-1-2zM99.5 116l3.5.5-3.5.5v-1zM71.5 160l.5 4.5h-1l.5-4.5zM33.5 162q3.3-1.1 2.5 1.5l-1.5-.5-1-1zM27.5 165l.5 2 3 .5-2.5.5-1-3zM70.5 175l.5 4.5h-1l.5-4.5zM35.5 177l.5 4.5h-1l.5-4.5zM135.5 179l1 2-1-2zM145.5 187l4.5.5-4.5.5v-1zM155.5 188l3 4-3-4zM69.5 190l.5 4.5h-1l.5-4.5zM36.5 192l.5 4.5h-1l.5-4.5zM122.5 192l.5 2-2-.5 1.5-1.5zM164.5 195l2.5.5-2.5.5v-1zM81.5 196l2 3-2-3zM171.5 196q3 1.5 0 3v-3zM152.5 199l13.5.5-13.5.5v-1z" opacity=".125"/><path d="M133.5 0l.5 45.5h-1l.5-45.5zM90.5 6l-2 3 2-3zM112.5 29l-1 2 1-2zM106.5 40l-5 6 5-6zM69.5 44l-1 2 1-2zM125.5 60l.5 49.5h-1l.5-49.5zM134.5 114l-.5 1.5-.5 58.5-.5-58.5 1.5-1.5zM103.5 116l.5 75.5h-1l.5-75.5zM33.5 154l39.5.5-39.5.5v-1zM70.5 166l.5 2.5h-1l.5-2.5zM35.5 168l.5 2.5h-1l.5-2.5zM69.5 181l.5 2.5h-1l.5-2.5zM36.5 183l.5 2.5h-1l.5-2.5zM157.5 191l1 2-1-2zM68.5 196l.5 2.5h-1l.5-2.5zM82.5 196l1 2-1-2zM105.5 196l1 2-1-2zM130.5 199l7.5.5-7.5.5v-1z" opacity=".929"/><path d="M129 0l4 .5v45l4 6 1 5v53l-2.5 4.5-2.5 1.5v58q2.8 1.7 2 7l6.5 6.5q3.8 2.7 12 1l3.5 2.5 3.5 4.5 11.5 2.5-5.5 1.5h-42q-3-1.5-1.5-7.5l5-10q-1.2-4.7 1-6V114q-2.7 1.1-2-1.5l-1-1V60l-5 .5v133l-3.5 4.5-5 2-4-1-3.5-3.5-1-2V116h-5.5l-.5.5v77l-3.5 4.5-5 2-4-1-4.5-4.5-1-3V60l-4 .5v51q-1.2 4.8-8.5 3.5l-3.5-4.5v-57q2.1-7.9 8.5-11.5l5-2h17l7 6 6-6h16l5.5 2V0zm-25 60l1 4h14v-4h-15z"/><path d="M97.5 3Q110 2 114 9.5q3 4 3 11-1.8 7.7-7.5 11.5l-9 3-7-2-5.5-4.5-3-6v-7Q86.8 8.3 92.5 5l5-2zM33 155h39.5l.5 4q-3.5-1.1-2 6.5l-1 1-1 29-1 4.5H38.5l-1.5-1.5-1-30-1-2.5 13.5-3 7.5-3.5q1.4-4.6-4.5-2.5L35 162q1.3-4.1-2-3v-4z"/><path d="M33.5 163q3 1.5 0 3l-5.5 1 1.5-3 4-1z"/><path d="M99.5 2l3.5.5-3.5.5V2zM111.5 6l2 3-2-3zM84.5 17l.5 2.5h-1l.5-2.5zM114.5 27l-1 2 1-2zM110.5 31l-1 2 1-2zM95.5 40l5 6-5-6zM71.5 42l-1 2 1-2zM67.5 46l-1 2 1-2zM76 60l4 .5-3 .5-.5 49-.5-50zM104.5 60h13l1.5 1.5-.5 1.5-.5-2h-13.5v-1zM122.5 60l2.5.5-3 .5-.5 132-.5-131.5 1.5-1.5zM136.5 113l-1 2 1-2zM68.5 115l3.5.5-3.5.5v-1zM98.5 116l.5 75.5h-1l.5-75.5zM32.5 154l.5 5q3-1.2 2 2.5h-1q-3.2-2.2-1.5-7.5zM73.5 154l.5 4.5-2.5 1.5v-1H73l.5-5zM55.5 158l.5 1.5-2 1 1.5-2.5zM35.5 164l1 2q-2.8.7-1-2zM70.5 169l.5 5.5h-1l.5-5.5zM35.5 171l.5 5.5h-1l.5-5.5zM127.5 181l-2 3 2-3zM136.5 181l4 5-4-5zM69.5 184l.5 5.5h-1l.5-5.5zM36.5 186l.5 5.5h-1l.5-5.5zM150.5 187l2.5.5-2.5.5v-1zM122.5 194l1.5 4.5-2-1 .5-3.5zM96.5 196l-1 2 1-2zM119.5 196l-2 3 2-3zM126.5 199l3.5.5-3.5.5v-1zM138.5 199l13.5.5-13.5.5v-1z" opacity=".631"/></svg>