<svg xmlns="http://www.w3.org/2000/svg" viewBox="0 0 200 200"><path d="M87.5 14l1.5.5-2 .5v6.5l-1.5.5.5-1.5q-1.2-5.2 1.5-6.5zM81.5 18l1 2-1-2zM95.5 19l1 2-1-2zM168.5 19l-2 3 2-3zM173.5 19l-2 3 2-3zM64.5 20l.5 27.5h-1l.5-27.5zM71.5 20l2.5 1.5-1.5.5-1-2zM91.5 20l1 2-1-2zM67.5 21l1 2-1-2zM81.5 22l1 2-1-2zM99.5 22l1 2-1-2zM95.5 23l1 2-1-2zM71.5 24l1 2-1-2zM161.5 25l-1 2 1-2zM166.5 25l-1 2 1-2zM104.5 26l1 2-1-2zM80.5 27l1 2-1-2zM76.5 28l1 2-1-2zM90.5 29l1 2-1-2zM107.5 29l.5 28 16 .5-15.5.5-1.5-1.5.5-27.5zM155.5 30l-2 3 2-3zM160.5 30l-2 3 2-3zM37.5 34l-1 2 1-2zM148.5 36l-2 3 2-3zM153.5 36l-2 3 2-3zM54.5 37l1 2-1-2zM33.5 38l-1 2 1-2zM57.5 40l1 2-1-2zM141.5 42l-2 3 2-3zM146.5 42l-2 3 2-3zM90.5 43l.5 4.5h-1l.5-4.5zM93.5 43l.5 4.5h-1l.5-4.5zM98.5 43l.5 4.5h-1l.5-4.5zM101.5 43l.5 4.5h-1l.5-4.5zM140.5 47l-2 3 2-3zM83.5 48l.5 8.5q-.7 2.3-4.5 1.5v-1H83l.5-9zM134.5 48l-1 2 1-2zM28.5 50l.5 6.5h-1l.5-6.5zM128.5 53l-2 3 2-3zM133.5 53l-2 3 2-3zM65.5 57l2.5.5-2.5.5v-1zM71.5 57l3.5.5-3.5.5v-1zM87.5 57l16.5.5-16.5.5v-1zM126.5 59l-2 3 2-3zM114.5 65l-1 2 1-2zM119.5 65l-1 2 1-2zM57.5 66l-2 3 2-3zM61.5 66l-1 2 1-2zM33.5 68l3 4-3-4zM113.5 70l-.5 1.5-.5 1.5-.5-1.5 1.5-1.5zM111.5 75l1 2-1-2zM116.5 75l1 2-1-2zM116.5 79l1 2-1-2zM121.5 79l1 2-1-2zM18.5 82l-1 2 1-2zM51.5 82l.5 2.5h-1l.5-2.5zM125.5 82l1 2-1-2zM121.5 83l1 2-1-2zM147.5 83l.5 18-2-.5 1-1 .5-16.5zM15.5 85l-1 2 1-2zM73.5 85l3 4-3-4zM125.5 87l-2 3 2-3zM128.5 89l-1 2 1-2zM120.5 91l-1 2 1-2zM158.5 91l.5 3.5h-1l.5-3.5zM124.5 92l-1 2 1-2zM11.5 94l.5 17.5h-1l.5-17.5zM115.5 95l-1 2 1-2zM152.5 95l.5 3.5h-1l.5-3.5zM119.5 96l-1 2 1-2zM110.5 99l-1 2 1-2zM114.5 100l-1 2 1-2zM160.5 102l1 2-1-2zM105.5 103l-1 2 1-2zM110.5 103l-1 2 1-2zM158.5 104l1.5 4.5-2-1 .5-3.5zM101.5 106l-1 2 1-2zM105.5 107l-1 2 1-2zM145.5 109l.5 3.5h-1l.5-3.5zM96.5 110l-1 2 1-2zM112.5 110l-3 4 3-4zM133.5 110l1 2-1-2zM100.5 111l-1 2 1-2zM129.5 111l1 2-1-2zM91.5 114l-1 2 1-2zM164.5 115l1 1h8.5l-.5 3-.5-2h-7.5l-1-2zM87.5 117l-1 2 1-2zM91.5 118l-1 2 1-2zM82.5 121l-1 2 1-2zM86.5 122l-1 2 1-2zM150.5 122l.5 8.5h-1l.5-8.5zM77.5 125l-1 2 1-2zM81.5 126l-1 2 1-2zM77.5 129l-1 2 1-2zM68.5 132l-1 2 1-2zM72.5 133l-1 2 1-2zM141.5 134l40.5.5-40.5.5-1 1 1-2zM63.5 136l-1 2 1-2zM67.5 137l-1 2 1-2zM111.5 140l1 2-1-2zM134.5 140l-1 2 1-2zM65.5 142l2 3-2-3zM61.5 143l1 2-1-2zM114.5 143l1 2-1-2zM131.5 143l-1 2 1-2zM110.5 144l1 2-1-2zM135.5 144l-1 2 1-2zM71.5 147l2 3-2-3zM67.5 148l1 2-1-2zM77.5 152l2 3-2-3zM73.5 153l1 2-1-2zM77.5 157l-2 3 2-3zM93.5 158l-2 3 2-3zM152.5 158l2 3-2-3zM75.5 163l-3 4 3-4zM93.5 163l-1 2 1-2zM69.5 164l-2 3 2-3zM67.5 170l-3 4 3-4zM116.5 170l.5 2.5h-1l.5-2.5zM129.5 170l.5 2.5h-1l.5-2.5zM61.5 171l-2 3 2-3zM59.5 177l-3 4 3-4zM53.5 178l-2 3 2-3zM51.5 184l-3 4 3-4z" opacity=".839"/><path d="M92.5 17l1 2-1-2zM68.5 18l1 2-1-2zM165.5 22l-1 2 1-2zM168.5 23l-1 2 1-2zM84.5 24l1 2-1-2zM98.5 25l1 2-1-2zM91.5 26l1 2-1-2zM159.5 27l-1 2 1-2zM162.5 28l-1 2 1-2zM103.5 29l1.5 1.5v27h-1v-27l-.5-1.5zM152.5 33l-1 2 1-2zM155.5 34l-1 2 1-2zM35.5 36l-1 2 1-2zM38.5 37l-3 4 3-4zM145.5 39l-1 2 1-2zM148.5 40l-1 2 1-2zM138.5 45l-1 2 1-2zM142.5 45l-1 2 1-2zM132.5 50l-1 2 1-2zM135.5 51l-1 2 1-2zM125.5 56l-1 2 1-2zM128.5 57l-1 2 1-2zM64.5 60l55.5.5-55.5.5-1 1 1-2zM118.5 62l-1 2 1-2zM121.5 63l-1 2 1-2zM112.5 67l-1 2 1-2zM59.5 68l-3 4 3-4zM115.5 68l-1 2 1-2zM127.5 84l1 2-1-2zM150.5 84l.5 18.5h-1l.5-18.5zM19.5 85l-2 3 2-3zM118.5 93l-1 2 1-2zM116.5 98l-1 2 1-2zM161.5 107l-1 2 1-2zM99.5 108l-1 2 1-2zM97.5 113l-1 2 1-2zM132.5 113l1 2-1-2zM85.5 119l-1 2 1-2zM83.5 124l-1 2 1-2zM71.5 130l-1 2 1-2zM69.5 135l-1 2 1-2zM64.5 139l-.5 1.5-.5 1.5-.5-1.5 1.5-1.5zM59.5 141l1 2-1-2zM68.5 145l1 2-1-2zM65.5 146l1 2-1-2zM74.5 150l1 2-1-2zM71.5 151l1 2-1-2zM80.5 155l1 2-1-2zM74.5 160l-1 2 1-2zM77.5 161l-1 2 1-2zM66.5 167l-1 2 1-2zM69.5 168l-1 2 1-2zM58.5 174l-1 2 1-2zM61.5 175l-1 2 1-2zM121.5 180l2 1 1.5-.5-2.5 1.5-1-2zM50.5 181l-2 3 2-3zM53.5 182l-1 2 1-2z" opacity=".996"/><path d="M89.5 14l1 2-1-2zM65.5 15l1 2-1-2zM73.5 15l.5 5.5h-1l.5-5.5zM79.5 16l1 2-1-2zM93.5 17l1 2-1-2zM170.5 17l-1 2 1-2zM69.5 18l1 2-1-2zM83.5 19l1 2-1-2zM77.5 20q-.5 5.1 2.5 6.5l-3-2 .5-4.5zM97.5 20l1 2-1-2zM79.5 21l1 2-1-2zM93.5 22l1 2-1-2zM164.5 22l-2 3 2-3zM170.5 22l-2 3 2-3zM69.5 23l1 2-1-2zM83.5 24l1 2-1-2zM102.5 24l1 2-1-2zM97.5 25l1 2-1-2zM73.5 26l1 2-1-2zM92.5 26l1 2-1-2zM87.5 27l1 2-1-2zM106.5 27l1 2-1-2zM158.5 27l-2 3 2-3zM164.5 27l-2 3 2-3zM101.5 28l1 2-1-2zM82.5 29l.5 1.5-2.5 1.5v-1q2.5.7 2-2zM43.5 31l6.5.5-6.5.5v-1zM73.5 31l1.5.5-2 .5-.5 5-.5-4.5 1.5-1.5zM86.5 31l1.5.5-2 .5-.5 5-.5-4.5 1.5-1.5zM99.5 31l1.5.5-2 .5-.5 5-.5-4.5 1.5-1.5zM76.5 33l.5 3.5h-1l.5-3.5zM89.5 33l.5 3.5h-1l.5-3.5zM102.5 33l.5 3.5h-1l.5-3.5zM151.5 33l-2 3 2-3zM157.5 33l-2 3 2-3zM56.5 34l1 2-1-2zM43.5 35l2.5.5-2.5.5v-1zM39.5 37l-1 2 1-2zM59.5 37l1 2-1-2zM66.5 38l.5 3.5h-1l.5-3.5zM70.5 38l.5 3.5h-1l.5-3.5zM144.5 39l-2 3 2-3zM150.5 39l-2 3 2-3zM36.5 40l-1 2 1-2zM68.5 43l1 1 16.5.5-16.5.5-1-2zM138.5 44l-3 4 3-4zM143.5 45l-2 3 2-3zM67.5 46l.5 10.5h-1l.5-10.5zM72.5 48l3.5 1.5-.5 7.5-.5-8h-3v7.5h-1q-1.7-6.7 1.5-8.5zM80.5 48l2.5.5-3 .5-.5 8-.5-7.5 1.5-1.5zM61.5 50l.5 6.5h-1l.5-6.5zM65.5 50l.5 5.5h-1l.5-5.5zM131.5 50l-2 3 2-3zM137.5 50l-2 3 2-3zM130.5 56l-2 3 2-3zM117.5 62l-2 3 2-3zM123.5 62l-2 3 2-3zM36.5 66l2 3-2-3zM111.5 67l-2 3 2-3zM117.5 67l-3 4 3-4zM60.5 68l-3 4 3-4zM45.5 71l3.5.5-3.5.5v-1zM114.5 73l1 2-1-2zM109.5 74l1 2-1-2zM45.5 75l3.5.5-3.5.5v-1zM167.5 75l.5 37.5h-1l.5-37.5zM118.5 76l2 3-2-3zM113.5 77l2 3-2-3zM28.5 78l5.5.5-5.5.5v-1zM40.5 78l13.5.5-13.5.5v-1zM60.5 78l4.5.5-4.5.5v-1zM38.5 79l.5 3 3 .5-2.5.5q-2.5-1-1-4zM123.5 80l1 2-1-2zM58.5 81l7.5 1.5-6.5.5-1-2zM118.5 81l1 2-1-2zM148.5 81l-1 2 1-2zM28.5 82l5.5.5-5.5.5v-1zM75.5 82l1 2-1-2zM41.5 84l.5 2.5h-1l.5-2.5zM45.5 84l.5 2.5h-1l.5-2.5zM128.5 84l2.5 3.5h-1l-1.5-3.5zM20.5 85l-3 4 3-4zM78.5 85l1 2-1-2zM123.5 85l1 2-1-2zM48.5 87l.5 2.5h-1l.5-2.5zM52.5 87l.5 2.5h-1l.5-2.5zM122.5 89l-1 2 1-2zM159.5 89l1.5.5-2.5 1.5 1-2zM40.5 91l.5 2.5h-1l.5-2.5zM126.5 91l-1 2 1-2zM117.5 93l-1 2 1-2zM153.5 93l1.5.5-2.5 1.5 1-2zM49.5 94l.5 2.5h-1l.5-2.5zM53.5 94l.5 3.5h-1l.5-3.5zM78.5 94l.5 16-64-.5 63-.5.5-15zM82.5 94l.5 17.5h-1l.5-17.5zM122.5 94l-1 2 1-2zM135.5 96l.5 15.5h-1l.5-15.5zM112.5 97l-1 2 1-2zM117.5 98l-1 2 1-2zM51.5 101l-1 2 1-2zM107.5 101l-1 2 1-2zM139.5 101l.5 16.5h-1l.5-16.5zM112.5 102l-1 2 1-2zM159.5 102l-1 2 1-2zM103.5 104l-1 2 1-2zM153.5 104l1 2-1-2zM108.5 105l-1 2 1-2zM120.5 106l5.5.5-5.5.5v-1zM98.5 108l-1 2 1-2zM103.5 109l-1 2 1-2zM152.5 111l.5 3.5h-1l.5-3.5zM156.5 111l.5 4.5-2 1 1.5-5.5zM11.5 112l1 1 68.5.5-68.5.5-1-2zM93.5 112l-1 2 1-2zM98.5 113l-1 2 1-2zM114.5 113l-2 3 2-3zM131.5 113l2 3-2-3zM145.5 113l-1 2-1.5-.5 2.5-1.5zM177.5 114l.5 2.5h-1l.5-2.5zM89.5 115l-1 2 1-2zM94.5 116l-2 3 2-3zM148.5 118l17.5.5-17.5.5v-1zM84.5 119l-1 2 1-2zM89.5 120l-1 2 1-2zM166.5 120l.5 10.5h-1l.5-10.5zM154.5 122l.5 8.5h-1l.5-8.5zM162.5 122l.5 8.5h-1l.5-8.5zM79.5 123l-1 2 1-2zM158.5 123l.5 6.5h-1l.5-6.5zM84.5 124l-1 2 1-2zM104.5 124l.5 8.5h-1l.5-8.5zM108.5 124l.5 2.5h-1l.5-2.5zM141.5 124l.5 3.5h-1l.5-3.5zM75.5 126l-2 3 2-3zM79.5 128l-1 2 1-2zM70.5 130l-1 2 1-2zM108.5 130l.5 2.5h-1l.5-2.5zM137.5 130l.5 2.5h-1l.5-2.5zM75.5 131l-1 2 1-2zM183.5 132l.5 1.5-2 1 1.5-2.5zM65.5 134l-1 2 1-2zM70.5 135l-1 2 1-2zM60.5 138l-1 2 1-2zM65.5 139l-.5 1.5-.5 1.5-.5-1.5 1.5-1.5zM108.5 142l1 2-1-2zM137.5 142l-1 2 1-2zM63.5 145l2 3-2-3zM69.5 145l1 2-1-2zM112.5 146l1 2-1-2zM121.5 146l3.5.5-3.5.5v-1zM133.5 146l-1 2 1-2zM69.5 150l2 3-2-3zM75.5 150l1 2-1-2zM121.5 150l3.5.5-3.5.5v-1zM104.5 153l5.5.5-5.5.5v-1zM116.5 153l13.5.5-13.5.5v-1zM136.5 153l5.5.5-5.5.5v-1zM80.5 154l1 2-1-2zM134.5 154l.5 3 7 .5-6.5.5q-2.5-1-1-4zM75.5 155l1 2-1-2zM95.5 156l-1 2 1-2zM111.5 156l-1 2-6.5-.5 7.5-1.5zM150.5 156l1 2-1-2zM80.5 159l-3 4 3-4zM73.5 160l-3 4 3-4zM96.5 160l-2 3 2-3zM124.5 160l.5 2.5h-1l.5-2.5zM149.5 160l3 4-3-4zM90.5 161l-1 2 1-2zM117.5 161l.5 2.5h-1l.5-2.5zM128.5 161l.5 2.5h-1l.5-2.5zM155.5 161l1 2-1-2zM65.5 167l-3 4 3-4zM71.5 167l-2 3 2-3zM120.5 167l.5 2.5h-1l.5-2.5zM125.5 167l.5 2.5h-1l.5-2.5zM129.5 167l.5 2.5h-1l.5-2.5z" opacity=".408"/><path d="M87.5 168l.5 20h69.5l.5-.5v-19h1v19l-1.5 1.5h-69l-1.5-1.5.5-19.5z" opacity=".408"/><path d="M91.5 168l.5 16h61.5l.5-.5v-15h1v16l-.5.5H91l.5-17zM57.5 174l-3 4 3-4zM63.5 174l-2 3 2-3zM49.5 181l-3 4 3-4zM55.5 181l-2 3 2-3z" opacity=".408"/><path d="M62.5 15L74 22v-7h2.5l7 6 3.5 1v-7h2.5L107 29.5V58h17.5l48-41 .5 2.5-61 52 1.5 2.5L130 86l-3.5 5L63 140.5q-.7 2.3 1.5 1.5L82 157.5 46.5 188q-3.5-2 1-4L78 157.5q.8-2.2-1.5-1.5L59 140.5l67-53q.8-2.2-1.5-1.5L108 72.5l2.5-3.5 9.5-7.5-.5-1.5h-55q-2.8 8.7-10 13-3.3 2.7-10 2-7.7-1.9-11.5-7.5-6-6-4-20 2.4-9.1 9.5-13.5 4-3 12-2l9.5 6.5.5 1.5.5-23.5 1.5-1.5zm2.5 4l-1 30 1 1v8h3V47l2-2h16l1 2v11h18V31L91 19l-1 7 4 2q3 2 0 3L80 21l-3-1q-2 6 2 6l3 5-3-1-14-11zM43 35l-4 2-4 4-4 11 1 9 4 7 8 4q7 1 11-2 5-4 7-11 2-12-3-17l-7-7h-9zm28 13v10h5V48h-5zm8 0v10h5V48h-5z"/><path d="M73 32l3 1.5q.8 3.8-1.5 4.5-2.7-1.4-1.5-6zM86 32l3 1.5q.8 3.8-1.5 4.5-2.7-1.4-1.5-6zM99 32l3 1.5q.8 3.8-1.5 4.5-2.7-1.4-1.5-6zM68.5 37q2.3.8 1.5 4.5-1.5 3-3 0-.7-3.7 1.5-4.5zM91 43h2v5h-2v-5zM99 43h2v5h-2v-5zM163.5 75l3.5.5v37l.5.5h8q2.3.8 1.5 4.5l-3 13 7.5.5 1.5 1.5-.5 1.5h-42l-.5 2.5-7.5 10.5-7 3h-5l-10.5-6.5-5-10v-10q2.1-8.9 8.5-13.5 3.8-4.2 13-3l9 6 .5-17 12 5V82.5l1.5-.5 14-7zm.5 3l-14 6v19l3 2q2-1 1 2h-2l-13-7v20l2 4v7h6v-10l2-2h16l1 2v10h6l2-11v-4h-8l-2-1V78zm-45 32l-6 3-5 10q-2 11 2 17l10 7 10-1q6-4 8-11 2-14-4-20l-6-5h-9zm31 12v9h5v-9h-5zm8 0v9h5v-9h-5zM27.5 79q6-1.5 7.5 1.5L33.5 82l-11 1-5.5 4.5-2 4V110h63.5l.5-.5v-17q-1.4-6.1-6.5-8.5-4.9-3.3-13.5-2v-3h7.5q8.3 1.7 12.5 7.5l3 7v18l-1.5 1.5H12V91.5l7.5-9.5 8-3z"/><path d="M40.5 79h13l1.5 1.5-4 1.5 2 15.5-6.5 9.5-5.5-8.5v-8l1-1V82q-3.7 1.5-3-1.5l1.5-1.5zm4.5 3l-1 13-1 1 2 5 3 1 2-4-1-13-1-1q1-3-3-2zM159 90l3 1.5-1.5 4.5q-2.7-1.4-1.5-6zM153 94l3 1.5-1.5 4.5q-2.7-1.4-1.5-6zM159 103l3 1.5-1.5 3.5H159v-5zM143.5 108q2.8 1.4 1.5 6l-3-1.5 1.5-4.5zM154.5 110q2.8 1.4 1.5 6l-3-1.5q-.7-3.7 1.5-4.5zM103.5 154q6-1.5 7.5 1.5l-.5 1.5h-8l-8.5 4-3 5.5V185h63.5l.5-.5v-18l-3-5.5-8.5-4H135l1.5-3q13.7-.7 18.5 7.5l3 6V188H88.5l-.5-.5v-20q2.3-6.7 7.5-10.5l8-3z"/><path d="M116.5 154h13l1.5 1.5-4 1.5 2 9.5v7l-5.5 7.5-3.5-2.5-3-5v-7l2-9.5-4-1.5 1.5-1.5zm6.5 3l-2 2q2 5-1 7-2 7 2 10-1 2 2 1l3-5-1-1-1-12-2-2z"/></svg>